<?xml version="1.0" encoding="UTF-8"?>
<svg xmlns="http://www.w3.org/2000/svg" xmlns:xlink="http://www.w3.org/1999/xlink" viewBox="0 0 60 60" width="60px" height="60px">
<g id="surface141193322">
<path style="fill-rule:nonzero;fill:rgb(100%,100%,100%);fill-opacity:1;stroke-width:10;stroke-linecap:butt;stroke-linejoin:round;stroke:rgb(7.843138%,65.098041%,54.509807%);stroke-opacity:1;stroke-miterlimit:10;" d="M 104.757992 79.328649 L 104.757992 90.692461 L 76.923171 90.692461 L 76.923171 109.54525 L 109.592649 109.54525 L 109.592649 121.193453 L 62.407353 121.193453 L 62.407353 50.806548 L 109.497851 50.806548 L 109.497851 62.549549 L 76.923171 62.549549 L 76.923171 79.328649 Z M 104.757992 79.328649 " transform="matrix(0.329651,0,0,0.329651,1.65,1.65)"/>
<path style="fill-rule:nonzero;fill:rgb(10.196079%,73.725492%,61.176473%);fill-opacity:1;stroke-width:10;stroke-linecap:butt;stroke-linejoin:round;stroke:rgb(7.843138%,65.098041%,54.509807%);stroke-opacity:1;stroke-miterlimit:10;" d="M 137.605215 22.936177 C 143.932927 22.936177 149.063824 28.067075 149.063824 34.394786 L 149.063824 74.031857 C 137.463019 71.827822 136.515047 63.070933 129.002371 63.070933 C 124.250662 63.070933 120.399527 66.910219 120.399527 71.661927 L 120.399527 100.349924 C 120.399527 105.089783 124.250662 108.929068 129.002371 108.929068 C 136.515047 108.929068 137.463019 100.172179 149.063824 97.968144 L 149.063824 137.605215 C 149.063824 143.932927 143.932927 149.063824 137.605215 149.063824 L 34.394786 149.063824 C 28.067075 149.063824 22.936177 143.932927 22.936177 137.605215 L 22.936177 100.006284 C 16.525518 103.383433 14.605875 108.929068 8.598104 108.929068 C 3.858245 108.929068 -0.00473988 105.077933 -0.00473988 100.338074 L -0.00473988 71.661927 C -0.00473988 66.922068 3.858245 63.070933 8.598104 63.070933 C 14.605875 63.070933 16.525518 68.616568 22.936177 71.993717 L 22.936177 34.394786 C 22.936177 28.067075 28.067075 22.936177 34.394786 22.936177 Z M 137.605215 22.936177 " transform="matrix(0.329651,0,0,0.329651,1.65,1.65)"/>
<path style=" stroke:none;fill-rule:nonzero;fill:rgb(10.196079%,73.725492%,61.176473%);fill-opacity:1;" d="M 12.988281 9.210938 C 10.902344 9.210938 9.210938 10.902344 9.210938 12.988281 L 9.210938 25.382812 C 7.097656 24.269531 6.464844 22.441406 4.484375 22.441406 C 2.921875 22.441406 1.648438 23.710938 1.648438 25.273438 L 1.648438 34.726562 C 1.648438 36.289062 2.921875 37.558594 4.484375 37.558594 C 6.464844 37.558594 7.097656 35.730469 9.210938 34.617188 L 9.210938 47.011719 C 9.210938 49.097656 10.902344 50.789062 12.988281 50.789062 L 47.011719 50.789062 C 49.097656 50.789062 50.789062 49.097656 50.789062 47.011719 L 50.789062 33.945312 C 46.964844 34.671875 46.652344 37.558594 44.175781 37.558594 C 42.609375 37.558594 41.339844 36.292969 41.339844 34.730469 L 41.339844 25.273438 C 41.339844 23.707031 42.609375 22.441406 44.175781 22.441406 C 46.652344 22.441406 46.964844 25.328125 50.789062 26.054688 L 50.789062 12.988281 C 50.789062 10.902344 49.097656 9.210938 47.011719 9.210938 Z M 12.988281 9.210938 "/>
<path style=" stroke:none;fill-rule:nonzero;fill:rgb(100%,100%,100%);fill-opacity:1;" d="M 36.183594 27.800781 L 36.183594 31.546875 L 27.007812 31.546875 L 27.007812 37.761719 L 37.777344 37.761719 L 37.777344 41.601562 L 22.222656 41.601562 L 22.222656 18.398438 L 37.746094 18.398438 L 37.746094 22.269531 L 27.007812 22.269531 L 27.007812 27.800781 Z M 36.183594 27.800781 "/>
</g>
</svg>
